Coordinates
version=1
nRows=34
nColumns=19
inDegrees=yes

Units are S.I. units (second, meters, Newtons, ...)
If the header above contains a line with 'inDegrees', this indicates whether rotational values are in degrees (yes) or radians (no).

endheader
time	pelvis_tilt	pelvis_list	pelvis_rotation	pelvis_tx	pelvis_ty	pelvis_tz	hip_flexion_r	hip_adduction_r	hip_rotation_r	knee_angle_r	knee_angle_r_beta	ankle_angle_r	hip_flexion_l	hip_adduction_l	hip_rotation_l	knee_angle_l	knee_angle_l_beta	ankle_angle_l
     14.98666667	      0.60376150	     -8.64758633	     -3.81304054	      2.37129779	      0.92714811	      1.02548488	     28.01780770	      7.82038515	    -15.55047071	     30.33066269	      0.52936993	      4.00483849	    -16.89410470	    -12.58101743	    -14.15666070	     75.95151467	      1.32560400	    -12.04451251
     14.99333333	      0.82399812	     -8.87517537	     -4.19576644	      2.36949663	      0.92411066	      1.02597640	     27.44238680	      8.03354773	    -15.52646952	     32.82133026	      0.57284028	      5.90779156	    -14.82765188	    -12.78557501	    -13.32966633	     80.29045432	      1.40133279	    -11.09786138
     15.00000000	      1.54497190	     -9.26487504	     -4.60550093	      2.36768854	      0.92188139	      1.02634789	     26.17401361	      8.42614410	    -15.14032490	     35.34383264	      0.61686625	      8.16285139	    -13.33278363	    -13.20189067	    -12.83020926	     84.24600852	      1.47037023	    -10.13853480
     15.00666667	      1.14143192	     -8.89370497	     -4.90897447	      2.36553844	      0.91893305	      1.02654230	     26.17928805	      8.01913772	    -14.42896460	     38.13337067	      0.66555287	     10.52095930	    -10.10791363	    -12.79096933	    -11.63672290	     88.15101940	      1.53852553	     -9.19011138
     15.01333333	      1.27130846	     -8.68150149	     -5.20261684	      2.36330878	      0.91704485	      1.02674775	     25.35077476	      7.84175778	    -13.41503359	     40.56486858	      0.70799052	     13.01760702	     -7.47536145	    -12.62387038	    -10.75921368	     91.60841523	      1.59886847	     -8.20494502
     15.02000000	      1.29070846	     -8.28700255	     -5.33358465	      2.36096428	      0.91568283	      1.02692386	     24.43436864	      7.48641381	    -12.28974412	     42.64154479	      0.74423535	     15.39664241	     -4.51032838	    -12.34425069	     -9.73449764	     94.73201445	      1.65338556	     -7.35711937
     15.02666667	      1.73447850	     -8.05261233	     -5.29489007	      2.35877695	      0.91539083	      1.02701561	     22.70971166	      7.24265489	    -11.28877016	     44.13674845	      0.77033158	     17.91696335	     -1.98689641	    -12.26367667	     -8.72023476	     97.37619994	      1.69953530	     -6.28982314
     15.03333333	      1.87576501	     -7.49334344	     -4.99905096	      2.35646722	      0.91556021	      1.02698862	     21.11158162	      6.60430735	    -10.45714914	     45.20031224	      0.78889427	     19.95740010	      1.14692071	    -11.85173305	     -7.40913723	     99.67057866	      1.73957977	     -5.57188570
     15.04000000	      2.17900548	     -6.97213950	     -4.59955418	      2.35437488	      0.91649441	      1.02707850	     19.02282704	      5.99573624	     -9.79231056	     45.68536089	      0.79735997	     21.83480681	      4.08786847	    -11.52596551	     -6.17457415	    101.47937525	      1.77114922	     -4.82419222
     15.04666667	      2.42360128	     -6.32296388	     -3.89371143	      2.35248637	      0.91807089	      1.02703769	     16.71978790	      5.15894727	     -9.59652182	     45.63584230	      0.79649571	     23.31724076	      7.19990863	    -10.99177007	     -4.70884642	    102.82670721	      1.79466460	     -4.21291252
     15.05333333	      2.74660365	     -5.66255161	     -3.12333921	      2.35096447	      0.92029856	      1.02714627	     14.04758700	      4.34795863	     -9.60186762	     45.05446604	      0.78634878	     24.40782401	     10.12745662	    -10.47535266	     -3.40679013	    103.65978041	      1.80920447	     -3.65942722
     15.06000000	      3.13253554	     -4.96231560	     -2.21923644	      2.34989258	      0.92311729	      1.02737855	     11.02927390	      3.52140307	     -9.94671618	     43.96037020	      0.76725320	     25.03316145	     12.87650540	     -9.89888168	     -2.17366622	    103.99879580	      1.81512140	     -3.16817098
     15.06666667	      3.88598940	     -4.29825829	     -1.30644573	      2.34933587	      0.92684259	      1.02781176	      7.33240865	      2.83794586	    -10.43894710	     42.32070971	      0.73863573	     25.02513124	     14.98902271	     -9.39965133	     -1.19934743	    103.78693808	      1.81142379	     -2.67690809
     15.07333333	      4.26145053	     -3.53063035	     -0.42832624	      2.34924939	      0.93054767	      1.02848173	      3.89546020	      2.16373066	    -11.07683581	     40.38218531	      0.70480209	     24.48413906	     17.33547356	     -8.81323219	     -0.44535170	    103.16698293	      1.80060353	     -2.20689433
     15.08000000	      4.71345682	     -2.75169760	      0.35350321	      2.34975291	      0.93469961	      1.02943883	      0.20398285	      1.59627419	    -11.79648929	     38.07158816	      0.66447456	     23.25098578	     19.31483908	     -8.33102972	     -0.05776222	    102.08331876	      1.78169002	     -1.76585191
     15.08666667	      5.42295233	     -1.91722227	      0.85867014	      2.35091788	      0.93946460	      1.03078574	     -3.90541639	      1.11397798	    -12.24023370	     35.40993450	      0.61801994	     21.47181311	     20.60645800	     -7.98665411	     -0.25120354	    100.50059512	      1.75406629	     -1.12173648
     15.09333333	      5.72535974	     -1.06680234	      1.20850902	      2.35264037	      0.94408220	      1.03230388	     -7.58355004	      0.63515710	    -12.72060396	     32.64772534	      0.56981030	     18.97983066	     22.08778389	     -7.72833210	     -0.79970517	     98.58467070	      1.72062710	     -0.51668075
     15.10000000	      6.04380815	     -0.15390283	      1.28199910	      2.35480628	      0.94900674	      1.03397806	    -11.26106877	      0.08253456	    -13.03006390	     29.77118191	      0.51960515	     15.90798141	     23.19889499	     -7.55772253	     -1.87243948	     96.26255607	      1.68009855	      0.17842497
     15.10666667	      6.09600938	      0.75405995	      1.24313148	      2.35749890	      0.95381679	      1.03558436	    -14.59059821	     -0.50019500	    -13.31588387	     26.89050295	      0.46932781	     12.35766131	     24.31795438	     -7.46891218	     -3.26714849	     93.63616697	      1.63425941	      0.90179003
     15.11333333	      5.96594341	      1.68866853	      1.05660967	      2.36050830	      0.95864124	      1.03705166	    -17.59122789	     -1.17717501	    -13.49269795	     24.11240948	      0.42084094	      8.45070058	     25.34122946	     -7.39674308	     -5.00497642	     90.68219450	      1.58270287	      1.62821031
     15.12000000	      5.58208892	      2.59421276	      0.84260583	      2.36368949	      0.96331605	      1.03818706	    -20.13418756	     -1.88887725	    -13.63643027	     21.54763214	      0.37607713	      4.33525752	     26.41228680	     -7.28869900	     -6.89070830	     87.45880230	      1.52644406	      2.31169359
     15.12666667	      4.93758099	      3.44702976	      0.70278322	      2.36687798	      0.96777381	      1.03881457	    -22.17421232	     -2.58745042	    -13.76610617	     19.29576715	      0.33677467	      0.18944067	     27.58750609	     -7.08057957	     -8.77221893	     83.99221026	      1.46594062	      2.85516184
     15.13333333	      4.07649446	      4.28575124	      0.57805401	      2.36995100	      0.97205956	      1.03898466	    -23.68811491	     -3.34862939	    -13.79555002	     17.51625404	      0.30571631	     -3.71016528	     28.80096740	     -6.71269598	    -10.66561140	     80.24891132	      1.40060772	      3.19761670
     15.14000000	      2.98835719	      5.03486774	      0.67712568	      2.37277755	      0.97598949	      1.03846454	    -24.67650163	     -4.01398863	    -13.83355098	     16.26030296	      0.28379582	     -7.22703450	     30.15551335	     -6.12808953	    -12.27788955	     76.30586121	      1.33178852	      3.34230414
     15.14666667	      1.77579547	      5.67062218	      0.91748014	      2.37520406	      0.97964778	      1.03738715	    -25.18852537	     -4.59692259	    -13.76507484	     15.64808564	      0.27311062	    -10.20941769	     31.52630472	     -5.35127201	    -13.59975443	     72.14508444	      1.25916926	      3.30535601
     15.15333333	      0.58323483	      6.15433237	      1.32490359	      2.37713422	      0.98309716	      1.03580225	    -25.40193712	     -5.01645416	    -13.52830385	     15.65011504	      0.27314604	    -12.56155989	     32.77687765	     -4.39318930	    -14.51705281	     67.78902320	      1.18314165	      3.05380203
     15.16000000	     -0.76397931	      6.38389471	      1.93429084	      2.37861414	      0.98600388	      1.03375171	    -25.09000848	     -5.19180220	    -13.22686531	     16.37230193	      0.28575057	    -14.32651939	     34.13065039	     -3.33718577	    -14.89908306	     63.33333152	      1.10537516	      2.73479688
     15.16666667	     -1.77182878	      6.65611598	      2.58955583	      2.37951700	      0.98882550	      1.03153475	    -24.77407967	     -5.43609699	    -12.94141411	     17.86051358	      0.31172477	    -15.29257450	     34.95623215	     -1.98823931	    -14.96525261	     58.66735463	      1.02393850	      2.30309147
     15.17333333	     -2.55735746	      6.74975384	      3.23614271	      2.37989356	      0.99133460	      1.02927829	    -24.33951360	     -5.53327698	    -12.53082876	     20.00058581	      0.34907607	    -15.70777167	     35.42397939	     -0.67261529	    -14.67975484	     53.94503158	      0.94151842	      1.88261652
     15.18000000	     -3.10712919	      6.77671818	      3.84877114	      2.37984411	      0.99349718	      1.02715481	    -23.82965976	     -5.59811317	    -12.14495404	     22.75423418	      0.39713631	    -15.64833138	     35.49795809	      0.64840451	    -14.12320673	     49.19649481	      0.85864081	      1.47268119
     15.18666667	     -3.42711705	      6.76071042	      4.38997636	      2.37943104	      0.99524813	      1.02519731	    -23.26258962	     -5.67736877	    -11.85044869	     26.05915457	      0.45481805	    -15.22659566	     35.19211475	      1.90432523	    -13.41176959	     44.50318657	      0.77672713	      1.08931366
     15.19333333	     -3.36670097	      6.82115294	      4.75893618	      2.37877996	      0.99675412	      1.02352076	    -22.87092374	     -5.90934417	    -11.64780056	     29.76506623	      0.51949841	    -14.58952002	     34.32661785	      3.06763297	    -12.82789985	     39.91070338	      0.69657318	      0.74341041
     15.20000000	     -3.20894467	      6.88127550	      5.12011566	      2.37785445	      0.99768166	      1.02188848	    -22.36917845	     -6.24717733	    -11.77527729	     33.86128766	      0.59099096	    -13.76888070	     33.29911676	      4.15960006	    -12.19664597	     35.58111019	      0.62100752	      0.37441063
     15.20666667	     -2.60470990	      7.12325914	      5.28585999	      2.37687784	      0.99847048	      1.02043906	    -22.24611076	     -6.86216661	    -12.01108079	     38.10233603	      0.66501122	    -12.85603885	     31.69027574	      5.20278288	    -11.92058962	     31.50739144	      0.54990772	      0.03186573
